<svg width="250" height="250" viewBox="0 0 250 250" fill="none" xmlns="http://www.w3.org/2000/svg">  <rect width="250" height="250"/>  <path d="M47.49 79.2377V89.5332C47.49 93.4996 47.49 95.4827 48.7009 95.9982C49.9115 96.5136 51.3539 95.1446 54.2388 92.4066L99.2845 49.6531C102.334 46.7591 103.858 45.3121 103.328 44.0519C102.798 42.7916 100.708 42.8558 96.5302 42.9842C94.5231 43.0459 92.3857 43.1273 90.2483 43.2336C84.0909 43.6873 75.7103 50.5117 72.2899 53.8672L48.718 76.3723C48.1125 76.9504 47.8097 77.2395 47.65 77.6125C47.49 77.9856 47.49 78.4029 47.49 79.2377Z" fill="url(#paint0_linear_1_2)"/>  <path d="M18.1197 207.129C19.8887 209.884 26.1598 206.653 29.2465 204.561L34.6626 200.165L39.7935 195.487L49.9129 185.299C56.1843 176.954 56.897 175.07 57.1819 171.384V45.0609C57.1819 44.6185 57.1819 44.3973 57.0393 44.0424C56.8967 43.6875 56.8231 43.6108 56.6765 43.4573C55.1089 41.8188 52.2679 43.6493 50.9107 44.9149C42.9291 51.1734 28.3914 65.0681 23.973 69.8684C19.9951 74.1903 18.0819 81.1636 17.8443 84.33V205.914C17.8443 206.241 17.8443 206.404 17.9244 206.677C18.0045 206.95 18.0429 207.01 18.1197 207.129Z" fill="url(#paint1_linear_1_2)"/>  <path fill-rule="evenodd" clip-rule="evenodd" d="M230.63 203.049L147.967 131.288C146.435 129.959 145.67 129.295 145.647 128.423C145.625 127.551 146.355 126.848 147.815 125.442L225.971 50.2038C228.979 47.3081 230.483 45.8602 229.978 44.6193C229.473 43.3785 227.38 43.3785 223.194 43.3785H218.808H169.636C166.548 43.2839 158.319 45.2784 150.11 54.0121C141.899 61.9702 117.833 85.1215 104.241 98.1876C102.814 99.5586 102.078 100.267 102.056 101.107L70.0093 134.116L86.8275 151.129L140.133 197.35C143.744 200.942 152.704 208.125 159.659 208.125H228.325C228.427 208.129 228.551 208.129 228.715 208.129C230.723 208.129 231.728 208.129 232.212 207.829C232.981 207.354 233.332 206.423 233.067 205.562C232.9 205.02 232.143 204.363 230.63 203.049Z" fill="url(#paint2_radial_1_2)"/>  <path d="M64.0855 164.142C65.1307 165.033 66.1228 163.798 66.5991 163.323C70.9843 158.957 82.1286 147.84 91.6237 138.303C106.209 125.499 104.684 120.936 104.779 117.404V64.4636C104.779 60.4295 104.779 58.4124 103.555 57.9017C102.331 57.3911 100.886 58.8037 97.9963 61.629C90.6934 68.7695 81.0007 78.2616 74.893 84.2894C66.5418 92.5314 63.9623 94.592 63.8822 104.894C63.749 121.99 63.4915 155.602 63.457 162.301C63.4541 162.845 63.4527 163.118 63.6352 163.516C63.8177 163.913 63.907 163.989 64.0855 164.141V164.142Z" fill="url(#paint3_linear_1_2)"/>  <defs>    <linearGradient id="paint0_linear_1_2" x1="104.561" y1="43.2148" x2="53.6922" y2="92.0895" gradientUnits="userSpaceOnUse">      <stop stop-color="#B72884"/>      <stop offset="0.485" stop-color="#6D3071"/>      <stop offset="1" stop-color="#1B141D"/>    </linearGradient>    <linearGradient id="paint1_linear_1_2" x1="17.8443" y1="125.5" x2="57.1819" y2="125.5" gradientUnits="userSpaceOnUse">      <stop stop-color="#1BDFEC"/>      <stop offset="1" stop-color="#9F90F8"/>    </linearGradient>    <radialGradient id="paint2_radial_1_2" cx="0" cy="0" r="1" gradientUnits="userSpaceOnUse" gradientTransform="translate(110.486 118.803) rotate(-9.51445) scale(159.54 161.159)">      <stop stop-color="#FF3E3E"/>      <stop offset="0.86" stop-color="#F9D423"/>    </radialGradient>    <linearGradient id="paint3_linear_1_2" x1="63.453" y1="109.78" x2="104.779" y2="109.78" gradientUnits="userSpaceOnUse">      <stop stop-color="#7C2E64"/>      <stop offset="1" stop-color="#D52E9E"/>    </linearGradient>  </defs></svg>