<svg width="803" height="631" viewBox="0 0 803 631" fill="none" xmlns="http://www.w3.org/2000/svg">
<path d="M127.954 152.419V188.712C127.954 202.694 127.954 209.685 132.2 211.502C136.445 213.319 141.503 208.493 151.619 198.841L309.574 48.129C320.266 37.9274 325.612 32.8265 323.753 28.3839C321.893 23.9413 314.567 24.1676 299.916 24.6202C292.878 24.8377 285.383 25.1246 277.888 25.4994C256.297 27.0988 226.91 51.1558 214.916 62.9844L132.26 142.318C130.137 144.356 129.075 145.375 128.515 146.69C127.954 148.005 127.954 149.476 127.954 152.419Z" fill="url(#paint0_linear_2176_1914)"/>
<path d="M24.9655 603.254C31.1686 612.964 53.1587 601.574 63.9824 594.201L82.974 578.706L100.966 562.213L136.45 526.299C158.441 496.882 160.94 490.242 161.939 477.247V31.9408C161.939 30.3814 161.939 29.6016 161.439 28.3506C160.939 27.0995 160.681 26.829 160.167 26.288C154.67 20.5119 144.708 26.9647 139.949 31.4261C111.961 53.4882 60.9837 102.469 45.4905 119.391C31.5418 134.626 24.833 159.208 24 170.37V598.971C24 600.123 24 600.699 24.2809 601.66C24.5617 602.622 24.6963 602.833 24.9655 603.254Z" fill="url(#paint1_linear_2176_1914)"/>
<path fill-rule="evenodd" clip-rule="evenodd" d="M770.142 588.87L480.28 335.905C474.911 331.22 472.226 328.877 472.147 325.804C472.068 322.731 474.628 320.253 479.749 315.297L753.806 50.0704C764.354 39.8626 769.627 34.7586 767.857 30.3844C766.087 26.0101 758.748 26.0101 744.07 26.0101H728.689H556.265C545.437 25.6769 516.583 32.7075 487.795 63.4951C459.005 91.5484 374.614 173.16 326.953 219.22C321.952 224.053 319.369 226.549 319.294 229.513L206.919 345.871L265.893 405.847L452.811 568.782C465.472 581.443 496.891 606.766 521.281 606.766H762.062C762.42 606.777 762.852 606.777 763.427 606.777C770.471 606.777 773.994 606.777 775.691 605.722C778.387 604.045 779.617 600.765 778.688 597.729C778.104 595.818 775.45 593.502 770.142 588.87L770.142 588.87Z" fill="url(#paint2_radial_2176_1914)"/>
<path d="M186.147 451.717C189.812 454.861 193.291 450.505 194.961 448.833C210.338 433.441 249.416 394.253 282.711 360.634C333.856 315.496 328.508 299.413 328.842 286.961V100.338C328.842 86.1173 328.842 79.0068 324.549 77.2067C320.255 75.4066 315.189 80.3863 305.057 90.3458C279.449 115.517 245.461 148.978 224.044 170.227C194.76 199.281 185.715 206.545 185.434 242.862C184.967 303.126 184.064 421.613 183.943 445.23C183.933 447.148 183.928 448.108 184.568 449.51C185.208 450.911 185.521 451.18 186.147 451.716L186.147 451.717Z" fill="url(#paint3_linear_2176_1914)"/>
<defs>
<linearGradient id="paint0_linear_2176_1914" x1="328.075" y1="25.4333" x2="148.797" y2="196.776" gradientUnits="userSpaceOnUse">
<stop stop-color="#B72884"/>
<stop offset="0.485" stop-color="#6D3071"/>
<stop offset="1" stop-color="#1B141D"/>
</linearGradient>
<linearGradient id="paint1_linear_2176_1914" x1="24" y1="315.5" x2="161.939" y2="315.5" gradientUnits="userSpaceOnUse">
<stop stop-color="#1BDFEC"/>
<stop offset="1" stop-color="#9F90F8"/>
</linearGradient>
<radialGradient id="paint2_radial_2176_1914" cx="0" cy="0" r="1" gradientUnits="userSpaceOnUse" gradientTransform="translate(348.852 291.892) rotate(-9.56396) scale(559.516 568.025)">
<stop stop-color="#FF3E3E"/>
<stop offset="0.86" stop-color="#F9D423"/>
</radialGradient>
<linearGradient id="paint3_linear_2176_1914" x1="183.929" y1="260.085" x2="328.842" y2="260.085" gradientUnits="userSpaceOnUse">
<stop stop-color="#7C2E64"/>
<stop offset="1" stop-color="#D52E9E"/>
</linearGradient>
</defs>
</svg>
